{
    "asset" : {
        "generator" : "Khronos glTF Blender I/O v1.5.17",
        "version" : "2.0"
    },
    "scene" : 0,
    "scenes" : [
        {
            "name" : "Scene",
            "nodes" : [
                0,
                1,
                2,
                3,
                4,
                5,
                6,
                7,
                8,
                9,
                10,
                11,
                12,
                13,
                14,
                15,
                16,
                17,
                18,
                19,
                20,
                21,
                22,
                23,
                24,
                25,
                26,
                27,
                28,
                29,
                30,
                31,
                32,
                33,
                34,
                35
            ]
        }
    ],
    "nodes" : [
        {
            "name" : "Light",
            "rotation" : [
                0.16907575726509094,
                0.7558803558349609,
                -0.27217137813568115,
                0.570947527885437
            ],
            "translation" : [
                4.076245307922363,
                5.903861999511719,
                -1.0054539442062378
            ]
        },
        {
            "name" : "Camera",
            "rotation" : [
                0.483536034822464,
                0.33687159419059753,
                -0.20870360732078552,
                0.7804827094078064
            ],
            "translation" : [
                7.358891487121582,
                4.958309173583984,
                6.925790786743164
            ]
        },
        {
            "mesh" : 0,
            "name" : "Model",
            "rotation" : [
                0.5839468240737915,
                -0.4008512496948242,
                0.2907296419143677,
                0.6432734131813049
            ],
            "translation" : [
                -4.185946464538574,
                1.4451110363006592,
                2.502357006072998
            ]
        },
        {
            "name" : "P1070938",
            "rotation" : [
                0.4804244637489319,
                -0.475943386554718,
                0.5392457246780396,
                0.5018807649612427
            ],
            "translation" : [
                4.112180233001709,
                0.5006518363952637,
                0.4317368268966675
            ]
        },
        {
            "name" : "P1070939",
            "rotation" : [
                0.46909213066101074,
                -0.4913628101348877,
                0.5397661924362183,
                0.49715960025787354
            ],
            "translation" : [
                4.215850353240967,
                1.3761584758758545,
                0.48479124903678894
            ]
        },
        {
            "name" : "P1070940",
            "rotation" : [
                0.46244123578071594,
                -0.5162662863731384,
                0.5225517153739929,
                0.4965452253818512
            ],
            "translation" : [
                4.217535018920898,
                2.0913987159729004,
                0.6029025316238403
            ]
        },
        {
            "name" : "P1070941",
            "rotation" : [
                0.45191633701324463,
                -0.5326875448226929,
                0.5090093612670898,
                0.5029165744781494
            ],
            "translation" : [
                4.2689738273620605,
                2.6530210971832275,
                0.7300064563751221
            ]
        },
        {
            "name" : "P1070942",
            "rotation" : [
                0.5421319603919983,
                -0.4434003531932831,
                0.6059982180595398,
                0.37716734409332275
            ],
            "translation" : [
                4.2562665939331055,
                3.8577208518981934,
                0.8618911504745483
            ]
        },
        {
            "name" : "P1070943",
            "rotation" : [
                0.6122095584869385,
                -0.3292900025844574,
                0.34372931718826294,
                0.6313617825508118
            ],
            "translation" : [
                4.0271315574646,
                0.7168524265289307,
                -2.445802927017212
            ]
        },
        {
            "name" : "P1070944",
            "rotation" : [
                0.6113500595092773,
                -0.32769694924354553,
                0.3355344235897064,
                0.6374030113220215
            ],
            "translation" : [
                3.913007974624634,
                1.5494768619537354,
                -2.3039419651031494
            ]
        },
        {
            "name" : "P1070945",
            "rotation" : [
                0.604372501373291,
                -0.3371823728084564,
                0.334570050239563,
                0.6396130323410034
            ],
            "translation" : [
                3.70367693901062,
                2.441476345062256,
                -2.1870768070220947
            ]
        },
        {
            "name" : "P1070946",
            "rotation" : [
                0.7226173877716064,
                -0.2839105725288391,
                0.3850058317184448,
                0.49898838996887207
            ],
            "translation" : [
                3.5583066940307617,
                3.751711368560791,
                -1.8975613117218018
            ]
        },
        {
            "name" : "P1070947",
            "rotation" : [
                0.7260594367980957,
                -0.036288704723119736,
                0.02635679394006729,
                0.6861677169799805
            ],
            "translation" : [
                0.5321359038352966,
                0.7519916296005249,
                -4.843057632446289
            ]
        },
        {
            "name" : "P1070948",
            "rotation" : [
                0.720493495464325,
                -0.03811424970626831,
                0.022172706201672554,
                0.6920583844184875
            ],
            "translation" : [
                0.4818820357322693,
                1.6999894380569458,
                -4.724103927612305
            ]
        },
        {
            "name" : "P1070949",
            "rotation" : [
                0.7234342694282532,
                -0.05230863019824028,
                0.012209850363433361,
                0.6883004903793335
            ],
            "translation" : [
                0.6251482963562012,
                2.728377342224121,
                -4.6596269607543945
            ]
        },
        {
            "name" : "P1070950",
            "rotation" : [
                0.8390142917633057,
                -0.08009891211986542,
                0.014998320490121841,
                0.5379723310470581
            ],
            "translation" : [
                0.8084784746170044,
                4.175041198730469,
                -3.9204466342926025
            ]
        },
        {
            "name" : "P1070951",
            "rotation" : [
                0.6828768253326416,
                0.20514698326587677,
                -0.2524787485599518,
                0.6541012525558472
            ],
            "translation" : [
                -3.3146581649780273,
                1.0314924716949463,
                -3.8687679767608643
            ]
        },
        {
            "name" : "P1070952",
            "rotation" : [
                0.6872872710227966,
                0.19649578630924225,
                -0.2658596336841583,
                0.646795392036438
            ],
            "translation" : [
                -3.034045457839966,
                2.0902137756347656,
                -3.8541696071624756
            ]
        },
        {
            "name" : "P1070953",
            "rotation" : [
                0.7062150239944458,
                0.18336567282676697,
                -0.2818466126918793,
                0.6230568885803223
            ],
            "translation" : [
                -2.5882441997528076,
                3.0289671421051025,
                -3.380476236343384
            ]
        },
        {
            "name" : "P1070954",
            "rotation" : [
                0.8248189687728882,
                0.10935349762439728,
                -0.322290301322937,
                0.4514916241168976
            ],
            "translation" : [
                -1.7906382083892822,
                4.764852046966553,
                -2.694005012512207
            ]
        },
        {
            "name" : "P1070955",
            "rotation" : [
                0.5639653205871582,
                0.4311251938343048,
                -0.4985608756542206,
                0.4975050687789917
            ],
            "translation" : [
                -4.813886642456055,
                1.0167746543884277,
                -0.63468337059021
            ]
        },
        {
            "name" : "P1070956",
            "rotation" : [
                0.570409893989563,
                0.4161417484283447,
                -0.5070543885231018,
                0.4943222403526306
            ],
            "translation" : [
                -4.8021440505981445,
                2.296329975128174,
                -0.6149880886077881
            ]
        },
        {
            "name" : "P1070957",
            "rotation" : [
                0.5764691233634949,
                0.40516597032546997,
                -0.5097772479057312,
                0.4936102330684662
            ],
            "translation" : [
                -4.5099196434021,
                3.4871883392333984,
                -0.5462052822113037
            ]
        },
        {
            "name" : "P1070958",
            "rotation" : [
                0.6649096012115479,
                0.30655616521835327,
                -0.5818981528282166,
                0.3539958596229553
            ],
            "translation" : [
                -3.385634660720825,
                4.737025737762451,
                -0.378710001707077
            ]
        },
        {
            "name" : "P1070959",
            "rotation" : [
                0.39576318860054016,
                0.5789349675178528,
                -0.6414294242858887,
                0.31108537316322327
            ],
            "translation" : [
                -4.211803436279297,
                1.3604400157928467,
                2.305771827697754
            ]
        },
        {
            "name" : "P1070960",
            "rotation" : [
                0.39319902658462524,
                0.5801882147789001,
                -0.639360785484314,
                0.31621819734573364
            ],
            "translation" : [
                -4.176339626312256,
                2.2798500061035156,
                2.3573999404907227
            ]
        },
        {
            "name" : "P1070961",
            "rotation" : [
                0.38804158568382263,
                0.5856282711029053,
                -0.6388887763023376,
                0.3135036528110504
            ],
            "translation" : [
                -3.671259641647339,
                3.0207839012145996,
                2.413252830505371
            ]
        },
        {
            "name" : "P1070962",
            "rotation" : [
                0.44302427768707275,
                0.4358595609664917,
                -0.7486331462860107,
                0.2308773398399353
            ],
            "translation" : [
                -2.9490835666656494,
                4.617201805114746,
                2.124350070953369
            ]
        },
        {
            "name" : "P1070963",
            "rotation" : [
                -0.08412550389766693,
                -0.6619569659233093,
                0.7447914481163025,
                0.004649763461202383
            ],
            "translation" : [
                -0.9190100431442261,
                1.1789510250091553,
                4.704556465148926
            ]
        },
        {
            "name" : "P1070964",
            "rotation" : [
                -0.0829886645078659,
                -0.671493649482727,
                0.7363442778587341,
                -0.002505842363461852
            ],
            "translation" : [
                -0.650244414806366,
                2.2733306884765625,
                4.233281135559082
            ]
        },
        {
            "name" : "P1070965",
            "rotation" : [
                -0.09181845188140869,
                -0.6450785398483276,
                0.758482038974762,
                -0.012167309410870075
            ],
            "translation" : [
                -0.31961336731910706,
                3.247526168823242,
                3.8974950313568115
            ]
        },
        {
            "name" : "P1070966",
            "rotation" : [
                -0.06375935673713684,
                -0.4403477907180786,
                0.8955388069152832,
                0.006233218125998974
            ],
            "translation" : [
                0.05577399954199791,
                4.95941162109375,
                3.373403549194336
            ]
        },
        {
            "name" : "P1070967",
            "rotation" : [
                0.16295546293258667,
                -0.6175154447555542,
                0.7435991168022156,
                0.1979411542415619
            ],
            "translation" : [
                2.0735933780670166,
                1.4177970886230469,
                4.042522430419922
            ]
        },
        {
            "name" : "P1070968",
            "rotation" : [
                0.1532115489244461,
                -0.6292194724082947,
                0.7370800971984863,
                0.19318899512290955
            ],
            "translation" : [
                2.0648908615112305,
                2.249040126800537,
                4.1632843017578125
            ]
        },
        {
            "name" : "P1070969",
            "rotation" : [
                0.1461806744337082,
                -0.6360273361206055,
                0.7320753931999207,
                0.19536137580871582
            ],
            "translation" : [
                2.2886273860931396,
                2.953719139099121,
                3.956465005874634
            ]
        },
        {
            "name" : "P1070970",
            "rotation" : [
                0.213882714509964,
                -0.44847381114959717,
                0.8542123436927795,
                0.15312322974205017
            ],
            "translation" : [
                1.8268629312515259,
                4.556474685668945,
                2.824223756790161
            ]
        }
    ],
    "materials" : [
        {
            "doubleSided" : true,
            "name" : "Material.002",
            "pbrMetallicRoughness" : {
                "baseColorTexture" : {
                    "index" : 0
                },
                "metallicFactor" : 0,
                "roughnessFactor" : 0.5
            }
        }
    ],
    "meshes" : [
        {
            "name" : "Model",
            "primitives" : [
                {
                    "attributes" : {
                        "POSITION" : 0,
                        "NORMAL" : 1,
                        "TEXCOORD_0" : 2,
                        "COLOR_0" : 3
                    },
                    "indices" : 4,
                    "material" : 0
                }
            ]
        }
    ],
    "textures" : [
        {
            "sampler" : 0,
            "source" : 0
        }
    ],
    "images" : [
        {
            "bufferView" : 5,
            "mimeType" : "image/jpeg",
            "name" : "index"
        }
    ],
    "accessors" : [
        {
            "bufferView" : 0,
            "componentType" : 5126,
            "count" : 48619,
            "max" : [
                1.678916573524475,
                -2.982424020767212,
                1.012088656425476
            ],
            "min" : [
                -1.676713466644287,
                -6.524374961853027,
                -2.4344465732574463
            ],
            "type" : "VEC3"
        },
        {
            "bufferView" : 1,
            "componentType" : 5126,
            "count" : 48619,
            "type" : "VEC3"
        },
        {
            "bufferView" : 2,
            "componentType" : 5126,
            "count" : 48619,
            "type" : "VEC2"
        },
        {
            "bufferView" : 3,
            "componentType" : 5123,
            "count" : 48619,
            "normalized" : true,
            "type" : "VEC4"
        },
        {
            "bufferView" : 4,
            "componentType" : 5123,
            "count" : 247329,
            "type" : "SCALAR"
        }
    ],
    "bufferViews" : [
        {
            "buffer" : 0,
            "byteLength" : 583428,
            "byteOffset" : 0
        },
        {
            "buffer" : 0,
            "byteLength" : 583428,
            "byteOffset" : 583428
        },
        {
            "buffer" : 0,
            "byteLength" : 388952,
            "byteOffset" : 1166856
        },
        {
            "buffer" : 0,
            "byteLength" : 388952,
            "byteOffset" : 1555808
        },
        {
            "buffer" : 0,
            "byteLength" : 494658,
            "byteOffset" : 1944760
        },
        {
            "buffer" : 0,
            "byteLength" : 14008,
            "byteOffset" : 2439420
        }
    ],
    "samplers" : [
        {
            "magFilter" : 9729,
            "minFilter" : 9987
        }
    ],
    "buffers" : [
        {
            "byteLength" : 2453428,
            "uri" : "data:application/octet-stream;base64,"
        }
    ]
}
